<?xml version="1.0" standalone="no"?>
<!DOCTYPE svg PUBLIC "-//W3C//DTD SVG 20010904//EN"
 "http://www.w3.org/TR/2001/REC-SVG-20010904/DTD/svg10.dtd">
<svg version="1.0" xmlns="http://www.w3.org/2000/svg"
  viewBox="0 0 100.000000 210.000000"
 >
<metadata>
</metadata>
<g transform="translate(0.000000,299.000000) scale(0.100000,-0.100000)"
fill="#000000" stroke="none">
<path d="M1651 2334 c-57 -15 -117 -57 -151 -104 l-21 -29 -62 43 c-95 66
-119 76 -189 76 -51 0 -73 -6 -114 -30 -125 -71 -139 -264 -24 -337 68 -43 69
-44 85 -143 9 -52 18 -97 21 -99 2 -2 48 10 101 28 128 41 235 43 368 6 127
-35 142 -34 154 13 5 20 12 58 16 85 6 44 10 50 62 85 86 57 120 142 93 238
-34 119 -204 204 -339 168z m139 -27 c42 -7 105 -44 138 -81 72 -82 49 -228
-44 -276 -28 -15 -69 -50 -59 -50 3 0 1 -9 -6 -21 -6 -12 -12 -35 -13 -53 -5
-52 -6 -54 -21 -69 -13 -13 -23 -13 -85 4 -39 10 -74 20 -78 23 -30 18 -193
23 -235 7 -14 -5 -28 -7 -31 -3 -13 12 91 31 180 32 50 1 119 -4 154 -11 58
-11 64 -11 76 6 22 29 17 59 -15 91 l-29 29 52 12 c103 26 153 135 107 238
-11 26 -18 52 -14 58 3 6 1 7 -5 3 -6 -4 -29 2 -51 13 -79 41 -157 37 -227
-11 -18 -13 -35 -32 -36 -43 -2 -15 -15 -22 -52 -30 -37 -7 -51 -6 -54 3 -2 7
-8 9 -13 6 -11 -7 -94 30 -104 46 -14 23 -80 41 -125 35 -35 -5 -54 -16 -83
-47 -63 -67 -75 -126 -38 -200 24 -50 11 -49 -17 1 -33 59 -29 148 9 201 15
21 38 42 51 45 13 4 26 12 30 18 8 13 115 15 143 3 11 -5 22 -10 25 -11 28
-10 39 -19 33 -28 -3 -5 -1 -7 5 -3 6 3 16 0 24 -7 19 -19 84 -57 96 -57 6 0
29 18 51 40 22 22 45 40 51 40 6 0 8 5 5 10 -5 9 9 15 18 8 2 -2 11 4 20 14 9
9 25 14 36 11 10 -3 22 0 25 5 6 10 44 9 106 -1z m0 -59 c83 -42 113 -128 72
-208 -21 -43 -75 -80 -115 -80 -17 0 -71 22 -126 52 -136 73 -202 68 -270 -21
l-26 -34 48 36 c68 52 114 64 158 42 73 -38 229 -157 229 -175 0 -45 -7 -48
-68 -33 -128 31 -304 13 -413 -43 -27 -13 -50 -24 -53 -24 -2 0 -9 29 -16 64
-15 78 -10 88 65 146 62 48 69 65 10 25 -127 -85 -260 54 -173 181 49 71 129
82 210 29 88 -58 165 -69 244 -33 49 22 49 22 19 28 l-29 5 29 19 c82 54 134
60 205 24z m-606 -305 c10 4 13 1 9 -8 -6 -16 -36 -5 -49 18 -5 8 -2 8 9 -2 9
-7 23 -11 31 -8z"/>
<path d="M1911 2124 c0 -11 3 -14 6 -6 3 7 2 16 -1 19 -3 4 -6 -2 -5 -13z"/>
<path d="M1172 2193 c-7 -7 -21 -28 -32 -46 -17 -28 -18 -38 -8 -69 6 -20 21
-42 34 -49 13 -7 24 -15 24 -19 0 -10 92 -2 104 10 7 7 -7 10 -46 10 -49 0
-59 3 -77 26 -28 35 -26 65 4 98 30 32 65 47 95 39 17 -4 21 -3 16 6 -10 16
-98 12 -114 -6z"/>
<path d="M1291 1952 c-16 -38 -11 -99 10 -118 15 -13 16 -9 13 62 -2 42 -5 79
-7 81 -3 2 -10 -9 -16 -25z"/>
<path d="M1603 1693 c-19 -7 -16 -51 4 -62 19 -10 53 2 53 19 0 9 -37 51 -42
49 -2 0 -9 -3 -15 -6z"/>
<path d="M1362 1668 c-19 -19 -15 -23 27 -23 35 -1 38 1 30 17 -11 21 -39 24
-57 6z"/>
<path d="M1412 1547 c-18 -5 -67 -41 -110 -78 -90 -81 -134 -96 -164 -59 -14
18 -16 26 -7 34 8 8 13 8 16 -2 6 -15 23 -6 23 14 0 19 -44 18 -60 -1 -17 -21
-5 -62 25 -81 25 -16 33 -16 160 1 46 6 116 33 157 61 l38 24 52 -29 c55 -30
111 -50 156 -57 15 -2 46 -7 70 -10 56 -8 88 1 108 31 19 29 11 61 -18 70 -26
9 -47 -10 -30 -27 9 -9 12 -9 12 0 0 7 5 12 10 12 18 0 10 -39 -11 -50 -35
-19 -73 -2 -152 69 -98 87 -177 110 -275 78z m159 -29 c44 -14 134 -91 125
-107 -9 -14 -83 10 -147 47 l-52 30 -84 -43 c-56 -28 -92 -40 -109 -37 -25 5
-25 5 16 44 74 72 159 94 251 66z"/>
<path d="M200 1060 c0 -49 -1 -93 -2 -97 -2 -5 24 -9 58 -11 49 -2 63 1 78 16
9 11 17 28 16 38 0 11 0 39 -1 64 0 64 -19 80 -91 80 l-58 0 0 -90z m108 32
c2 -7 -5 -16 -17 -19 -27 -7 -27 -29 0 -36 33 -9 20 -41 -19 -45 l-32 -3 0 61
0 61 32 -3 c17 -2 33 -9 36 -16z"/>
<path d="M415 1060 c-25 -50 -43 -95 -40 -100 10 -17 34 -11 45 10 8 15 21 20
55 20 35 0 45 -4 50 -20 7 -23 45 -27 45 -5 0 25 -84 185 -97 185 -7 0 -33
-41 -58 -90z m73 -10 c11 -18 10 -20 -13 -20 -27 0 -28 1 -19 24 8 21 17 20
32 -4z"/>
<path d="M618 1120 c-27 -28 -30 -36 -25 -77 3 -26 13 -54 24 -65 24 -24 92
-34 122 -19 23 13 25 19 12 39 -7 11 -12 11 -28 1 -28 -17 -71 -4 -85 26 -24
52 37 106 85 76 16 -10 21 -10 28 1 13 20 11 26 -10 38 -39 20 -91 12 -123
-20z"/>
<path d="M786 1142 c-2 -4 -4 -48 -3 -97 2 -85 3 -90 25 -93 20 -3 22 1 22 37
l0 41 40 0 c40 0 40 0 40 -40 0 -33 3 -40 20 -40 19 0 20 7 20 100 0 93 -1
100 -20 100 -17 0 -20 -7 -20 -40 0 -40 0 -40 -40 -40 -40 0 -40 0 -40 40 0
33 -3 40 -19 40 -11 0 -22 -4 -25 -8z"/>
<path d="M984 1137 c-3 -8 -4 -52 -2 -98 l3 -84 78 -3 c71 -3 77 -1 77 17 0
17 -8 20 -57 23 -44 2 -58 7 -58 18 0 10 13 16 43 18 33 3 42 7 42 22 0 15 -9
19 -42 22 -30 2 -43 8 -43 18 0 11 14 16 58 18 49 3 57 6 57 22 0 18 -7 20
-75 20 -54 0 -77 -4 -81 -13z"/>
<path d="M1162 1053 l3 -98 70 0 c56 0 70 3 70 15 0 11 -14 16 -50 18 l-50 3
0 77 c0 73 -1 77 -23 80 -23 3 -23 3 -20 -95z"/>
<path d="M1357 1124 c-35 -34 -42 -75 -22 -117 31 -66 104 -79 156 -28 23 23
29 38 29 71 0 88 -103 134 -163 74z m109 -40 c23 -34 9 -75 -28 -88 -53 -19
-91 52 -51 96 23 26 59 23 79 -8z"/>
<path d="M1550 1050 c0 -93 1 -100 20 -100 16 0 20 7 20 30 0 25 4 30 26 30
19 0 28 -7 35 -30 7 -20 18 -30 31 -30 17 0 19 4 14 28 -9 33 -9 47 0 90 5 26
2 38 -17 58 -18 20 -32 24 -76 24 l-53 0 0 -100z m100 45 c17 -20 -3 -45 -36
-45 -20 0 -24 5 -24 30 0 25 4 30 24 30 13 0 29 -7 36 -15z"/>
<path d="M1723 1109 c9 -67 22 -68 33 -1 6 39 5 42 -16 42 -21 0 -22 -3 -17
-41z"/>
<path d="M1793 1124 c-15 -24 -15 -29 -2 -53 8 -14 30 -31 49 -37 19 -7 35
-18 35 -25 0 -20 -39 -23 -54 -5 -14 16 -41 11 -41 -9 0 -22 36 -45 72 -45 45
0 70 27 66 71 -3 30 -8 35 -43 45 -25 7 -41 18 -43 29 -3 15 1 17 32 11 29 -6
38 -3 43 10 8 21 -13 34 -59 34 -30 0 -41 -6 -55 -26z"/>
<path d="M2055 1060 c-25 -50 -43 -95 -40 -100 10 -17 34 -11 45 10 8 15 21
20 55 20 35 0 45 -4 50 -20 7 -23 45 -27 45 -5 0 25 -84 185 -97 185 -7 0 -33
-41 -58 -90z m73 -13 c2 -11 -3 -17 -16 -17 -15 0 -19 5 -15 20 6 24 26 21 31
-3z"/>
<path d="M2236 1142 c-4 -7 -2 -142 3 -184 1 -12 87 -9 114 3 28 13 57 58 57
89 0 34 -29 80 -56 90 -31 12 -111 13 -118 2z m113 -58 c12 -15 21 -31 21 -36
0 -17 -49 -58 -70 -58 -18 0 -20 6 -20 60 0 57 1 60 24 60 15 0 33 -11 45 -26z"/>
<path d="M2432 1053 l3 -98 52 -3 c45 -3 56 1 83 25 20 18 33 41 37 65 5 33 2
41 -30 73 -32 32 -40 35 -91 35 l-57 0 3 -97z m106 41 c32 -22 27 -73 -9 -93
-43 -24 -54 -11 -51 53 4 62 17 70 60 40z"/>
<path d="M2666 1058 c-24 -51 -41 -96 -39 -100 9 -16 42 -7 48 12 5 16 15 20
50 20 34 0 47 -5 55 -20 11 -20 35 -27 44 -12 9 15 -82 192 -99 192 -10 0 -31
-34 -59 -92z m74 -8 c9 -18 8 -20 -15 -20 -23 0 -24 2 -15 20 6 11 13 20 15
20 2 0 9 -9 15 -20z"/>
</g>
</svg>
